<svg class="text-white fill-current" width="100%" height="100%" viewBox="0 0 896 286" version="1.1" xmlns="http://www.w3.org/2000/svg" xmlns:xlink="http://www.w3.org/1999/xlink" xml:space="preserve" xmlns:serif="http://www.serif.com/" style="fill-rule:evenodd;clip-rule:evenodd;stroke-linejoin:round;stroke-miterlimit:2;">
    <g id="Artboard1" transform="matrix(1,0,0,1,-261,-917)">
        <g transform="matrix(1,0,0,1,-532,93)">

            <g transform="matrix(0.820647,0,0,0.683987,230.962,16.5931)">
                <path d="M831.661,1269.68L875.602,1269.68C875.824,1258.59 874.048,1249.49 870.276,1242.39C866.503,1235.29 861.343,1229.68 854.797,1225.58C848.25,1221.47 840.649,1218.64 831.994,1217.09C823.339,1215.54 814.351,1214.76 805.03,1214.76C796.819,1214.76 788.22,1215.7 779.232,1217.59C770.244,1219.48 761.977,1222.58 754.432,1226.91C746.886,1231.24 740.728,1236.84 735.957,1243.72C731.185,1250.6 728.8,1259.14 728.8,1269.35C728.8,1276.23 729.632,1282 731.296,1286.66C732.961,1291.32 735.402,1295.32 738.62,1298.65C741.838,1301.98 745.721,1304.75 750.271,1306.97C754.82,1309.19 760.091,1311.3 766.083,1313.29L802.367,1324.94C807.471,1326.72 811.577,1328.83 814.684,1331.27C817.791,1333.71 819.344,1337.93 819.344,1343.92C819.344,1347.91 818.457,1351.19 816.681,1353.74C814.906,1356.29 812.576,1358.4 809.691,1360.06C806.806,1361.73 803.588,1362.89 800.037,1363.56C796.486,1364.22 792.935,1364.56 789.385,1364.56C785.39,1364.56 781.34,1364.06 777.234,1363.06C773.129,1362.06 769.467,1360.62 766.249,1358.73C763.031,1356.85 760.424,1354.46 758.426,1351.58C756.429,1348.69 755.43,1345.25 755.43,1341.26L755.43,1335.6L711.822,1335.6L711.822,1342.59C711.822,1352.8 714.042,1361.28 718.48,1368.05C722.919,1374.82 728.633,1380.26 735.624,1384.36C742.614,1388.47 750.437,1391.41 759.092,1393.18C767.747,1394.96 776.291,1395.85 784.724,1395.85C794.711,1395.85 804.586,1394.85 814.351,1392.85C824.116,1390.86 832.882,1387.53 840.649,1382.87C848.416,1378.2 854.686,1372.16 859.457,1364.72C864.228,1357.29 866.614,1348.25 866.614,1337.59C866.614,1330.49 865.449,1324.28 863.119,1318.95C860.789,1313.63 857.571,1309.02 853.465,1305.14C849.359,1301.25 844.588,1297.98 839.151,1295.32C833.714,1292.65 827.777,1290.32 821.342,1288.33L797.707,1280.67C789.718,1278.23 784.114,1275.68 780.896,1273.01C777.678,1270.35 776.069,1267.13 776.069,1263.36C776.069,1257.15 778.788,1252.76 784.225,1250.21C789.662,1247.66 796.597,1246.38 805.03,1246.38C814.351,1246.38 821.064,1248.44 825.17,1252.54C829.275,1256.65 831.439,1262.36 831.661,1269.68Z" style="fill-rule:nonzero;"/>
                <path d="M1046.04,1382.53L1080.33,1219.42L1035.05,1219.42L1029.73,1245.72L1029.06,1245.72C1024.18,1234.4 1017.19,1226.41 1008.09,1221.75C998.991,1217.09 988.45,1214.76 976.466,1214.76C962.707,1214.76 950.446,1217.81 939.682,1223.91C928.919,1230.02 919.82,1238.01 912.386,1247.88C904.951,1257.76 899.292,1268.85 895.409,1281.17C891.525,1293.49 889.583,1305.97 889.583,1318.62C889.583,1329.27 891.137,1338.87 894.243,1347.41C897.35,1355.96 901.733,1363.34 907.392,1369.55C913.051,1375.76 919.987,1380.54 928.198,1383.86C936.409,1387.19 945.619,1388.86 955.827,1388.86C975.135,1388.86 990.891,1380.76 1003.1,1364.56L1003.76,1365.22C1001.32,1373.43 998.88,1381.2 996.439,1388.53C993.998,1395.85 991.002,1402.17 987.451,1407.5C983.901,1412.83 979.628,1417.04 974.635,1420.15C969.642,1423.26 963.373,1424.81 955.827,1424.81C952.055,1424.81 948.282,1424.37 944.509,1423.48C940.736,1422.59 937.352,1421.15 934.356,1419.15C931.36,1417.15 928.974,1414.6 927.199,1411.49C925.424,1408.39 924.647,1404.61 924.869,1400.18L877.932,1400.18C877.932,1410.61 880.096,1419.37 884.423,1426.47C888.751,1433.58 894.41,1439.35 901.4,1443.78C908.391,1448.22 916.269,1451.44 925.035,1453.44C933.801,1455.43 942.512,1456.43 951.167,1456.43C965.37,1456.43 977.742,1454.99 988.283,1452.11C998.825,1449.22 1007.92,1444.78 1015.58,1438.79C1023.24,1432.8 1029.51,1425.14 1034.39,1415.82C1039.27,1406.5 1043.15,1395.4 1046.04,1382.53ZM985.121,1250.38C996.661,1250.38 1005.21,1253.87 1010.75,1260.86C1016.3,1267.85 1019.08,1276.79 1019.08,1287.66C1019.08,1294.98 1018.02,1302.53 1015.91,1310.3C1013.81,1318.06 1010.7,1325.11 1006.59,1331.43C1002.49,1337.76 997.271,1342.98 990.947,1347.08C984.622,1351.19 977.243,1353.24 968.81,1353.24C963.262,1353.24 958.49,1352.24 954.496,1350.24C950.501,1348.25 947.172,1345.47 944.509,1341.92C941.846,1338.37 939.904,1334.32 938.684,1329.77C937.463,1325.22 936.853,1320.39 936.853,1315.29C936.853,1308.41 937.907,1301.14 940.015,1293.49C942.123,1285.83 945.175,1278.84 949.17,1272.51C953.164,1266.19 958.157,1260.92 964.149,1256.7C970.141,1252.49 977.132,1250.38 985.121,1250.38Z" style="fill-rule:nonzero;"/>
            </g>
            <g transform="matrix(0.820647,0,0,0.685545,567.053,121.973)">
                <path d="M746.442,1219.42L710.824,1391.52L757.761,1391.52L777.068,1299.31C778.178,1293.99 779.953,1288.55 782.394,1283C784.835,1277.45 787.887,1272.4 791.548,1267.85C795.21,1263.31 799.538,1259.53 804.531,1256.54C809.524,1253.54 815.128,1252.04 821.342,1252.04C827.334,1252.04 832.271,1253.82 836.155,1257.37C840.039,1260.92 841.981,1265.25 841.981,1270.35C841.981,1274.12 841.537,1278.23 840.649,1282.67L818.013,1391.52L865.615,1391.52L884.923,1299.31C886.032,1293.99 887.808,1288.55 890.249,1283C892.69,1277.45 895.741,1272.4 899.403,1267.85C903.065,1263.31 907.392,1259.53 912.386,1256.54C917.379,1253.54 922.983,1252.04 929.196,1252.04C935.188,1252.04 940.126,1253.82 944.01,1257.37C947.893,1260.92 949.835,1265.25 949.835,1270.35C949.835,1274.12 949.391,1278.23 948.504,1282.67L925.868,1391.52L973.137,1391.52L994.442,1290.32C995.551,1285.22 996.661,1279.95 997.771,1274.51C998.88,1269.08 999.435,1263.69 999.435,1258.37C999.435,1251.04 997.993,1244.61 995.108,1239.06C992.223,1233.51 988.339,1228.96 983.457,1225.41C978.574,1221.86 972.971,1219.2 966.646,1217.42C960.321,1215.65 953.83,1214.76 947.172,1214.76C941.624,1214.76 936.021,1215.48 930.361,1216.92C924.702,1218.37 919.321,1220.42 914.217,1223.08C909.112,1225.74 904.341,1228.91 899.903,1232.57C895.464,1236.23 891.802,1240.28 888.917,1244.72C886.92,1234.07 882.149,1226.41 874.603,1221.75C867.058,1217.09 857.959,1214.76 847.307,1214.76C834.657,1214.76 823.228,1217.09 813.02,1221.75C802.811,1226.41 794.156,1233.73 787.054,1243.72L786.389,1243.72L791.715,1219.42L746.442,1219.42Z" style="fill-rule:nonzero;"/>
                <path d="M1045.04,1219.42L1009.42,1391.52L1056.36,1391.52L1075.67,1299.98C1077,1293.99 1078.94,1288.1 1081.49,1282.33C1084.04,1276.56 1087.26,1271.46 1091.14,1267.02C1095.03,1262.58 1099.69,1258.98 1105.13,1256.2C1110.56,1253.43 1116.83,1252.04 1123.93,1252.04C1129.48,1252.04 1134.64,1253.71 1139.41,1257.04C1144.18,1260.36 1146.57,1264.58 1146.57,1269.68C1146.57,1272.13 1146.18,1275.57 1145.4,1280C1144.63,1284.44 1144.02,1287.99 1143.57,1290.66L1122.6,1391.52L1169.87,1391.52L1191.18,1290.66C1191.4,1289.1 1191.79,1287.05 1192.34,1284.5C1192.9,1281.95 1193.45,1279.23 1194.01,1276.34C1194.56,1273.46 1195.06,1270.63 1195.5,1267.85C1195.95,1265.08 1196.17,1262.81 1196.17,1261.03C1196.17,1230.18 1179.41,1214.76 1145.9,1214.76C1121.05,1214.76 1100.96,1224.3 1085.65,1243.39L1084.99,1243.39L1090.31,1219.42L1045.04,1219.42Z" style="fill-rule:nonzero;"/>
                <path d="M1305.69,1219.42L1316.34,1167.16L1269.07,1167.16L1258.42,1219.42L1228.13,1219.42L1220.8,1251.04L1251.76,1251.04L1232.45,1343.25C1231.79,1346.36 1231.23,1349.3 1230.79,1352.07C1230.35,1354.85 1230.12,1357.35 1230.12,1359.56C1229.9,1366.66 1231.07,1372.43 1233.62,1376.87C1236.17,1381.31 1239.61,1384.81 1243.94,1387.36C1248.27,1389.91 1253.15,1391.69 1258.59,1392.69C1264.02,1393.68 1269.52,1394.18 1275.06,1394.18C1280.17,1394.18 1285.16,1394.02 1290.04,1393.68C1294.93,1393.35 1299.81,1392.96 1304.69,1392.52L1312.68,1356.24C1307.13,1356.9 1301.47,1357.23 1295.7,1357.23C1293.93,1357.23 1292.1,1357.18 1290.21,1357.07C1288.32,1356.96 1286.6,1356.46 1285.05,1355.57C1283.5,1354.68 1282.22,1353.4 1281.22,1351.74C1280.22,1350.08 1279.72,1347.69 1279.72,1344.58C1279.72,1343.92 1279.84,1342.86 1280.06,1341.42C1280.28,1339.98 1280.61,1338.37 1281.06,1336.6L1298.7,1251.04L1332.32,1251.04L1339.64,1219.42L1305.69,1219.42Z" style="fill-rule:nonzero;"/>
            </g>
            <g transform="matrix(1.41628,0,0,1.19092,-5546.56,-3924.37)">
                <path d="M4730.88,4009.6L4740.97,4009.6L4701.52,4199.06L4691.27,4199.06L4730.88,4009.6Z"/>
            </g>
        </g>
    </g>
</svg>
